<svg id="Capa_1" data-name="Capa 1" xmlns="http://www.w3.org/2000/svg" viewBox="0 0 2147 1955"><path d="M1318.17,1417.78l-39.54,24.45c14.56,12.54,30.2,16.78,45.1,22.71,68.84,27.44,130.44,65,172.44,128.21a192.86,192.86,0,0,1,21.37,44.39c14.31,42.08-3.29,77.73-44.52,94.34C1457.77,1738,1443,1745.26,1428,1752H1292c-1.53-.82-3.08-2.4-4.59-2.36-85.12,2.28-169.58-12.62-254.72-9.56-5.21.19-10.59,1.52-15.59.64-74-13.09-148.86-2.93-223.18-8.7-25.76-2-52,2.85-78.07,4.08-9.54.45-19.52,1-28.64-1.19-17.15-4.15-35.19-10.86-37.53-30.94-2.38-20.44,17-24.07,31-29.65,11.08-4.41,23-8.26,40.92-3.27-17,5.19-29.54,8.58-41.78,12.92-9.07,3.22-19.15,7.37-17.79,19.34,1.23,10.86,11.66,11.9,20,13.53,34,6.65,67.79-1,101.39-3.32,87.2-5.89,174,2.64,260.93,4,123.61,1.92,247.11,9.5,370.81,7.71,18.55-.27,36-6.23,52.79-13.71,25.73-11.43,37.32-34.38,29.25-61.78-16.6-56.29-55.55-95.81-103-126.4-98.11-63.27-209.29-93-321.31-119.88q-11.43-2.74-22.75-6c-1.48-.42-2.67-1.85-8.29-6,33.79.75,61.74,9.41,90.07,15,12.92,2.53,25.94,8.69,27.68-13,.34-4.22,5.51-10.44,9.61-11.59,36.3-10.17,62.29-44.45,111.64-43.66l-44.25,19.07c1.37,2.26,2,4.52,2.88,4.61,10.48,1.06,28.2-7,29.3,6,1.13,13.19-17.93,7.51-27.88,10.47-15.82,4.7-32.19,7.51-48.13,11.85-5.65,1.54-12.18,4.13-11.8,11.94.3,6.28,5.77,8.08,10.62,10,17.87,7.1,36,13.43,55.32,14.89,43.84,3.32,77.53-34.1,75.52-83.65-.35-8.54-2-17-3.17-26.09,20.9,12.45,25.92,40.83,12,69.68-4.91,10.17-11.26,19.61-13.3,31Z" style="fill:#816f63"/><path d="M1263.66,930.24c-16.08-47.83-39.51-86.28-78.3-114.69-23-16.85-26.8-39.52-5.63-57.34,29.92-25.21,21.72-52.37,10.57-80.23-20.39-51-21-100.73,1.83-151.18,16-35.46,28-72.17,16.57-112.78-5.67,32.27-26,56.05-44.18,81-7.56,10.41-8.24,22.7-10,34.71-4.34,29.91-17.25,53.25-44.34,69.9s-50.08,39.69-81.36,51.11c-34.27,12.51-62.88,9.14-87.73-18.27-2.27-2.51-5.28-4.38-8.06-6.39-.43-.31-1.49.25-5.07,1,14.35,30.1,26.63,60.64,46.56,86.86,40.13,52.79,48.49,115-4.33,163.55-24.75,22.76-36.08,55-34.18,92.12-9.65-19-9.86-21.91-3.86-47,7.05-29.47,24.12-53.91,40.74-78.3,20.1-29.5,20.7-52,2.58-81.62C950.6,721.94,923.55,682,903.64,638.79c-29.82-64.65-27.73-133.06-1.34-198.08,12.33-30.38,41.57-48.13,76.61-51.5,62.28-6,124.53-12.28,188-15-14.12,3.44-28.09,7.7-42.38,10.17-48.88,8.47-97.8,16.84-146.86,24.19-32,4.8-51,23.47-55.78,53.76-6.92,44.16-18.37,89.53,7.83,131.79,28.27,45.6,57.85,52.28,105.21,27.58,25.85-13.48,47.71-31.85,70-49.88,14.48-11.74,25-26.29,26.54-46.12,2.83-36.44,33.67-57.87,48.82-87.9,10.13-20.09,19.37-38.55,12.12-63.88,24.27,6.15,31.36,26.21,33.54,41.31,5.13,35.49,6.31,70.47-9,106.75-22.93,54.33-17.64,113.08.58,167.89,11.86,35.64,1.39,61.61-20.65,84.92-10.54,11.16-8.78,14.62.29,23.61,21.62,21.47,39.22,46.14,55.87,71.77C1264.7,888.22,1269.8,905.77,1263.66,930.24Z" style="fill:#816f63"/><path d="M1022.65,1147.09c-77.75,45.6-159.3,82.31-246.76,103.59-28.73,7-46,17.78-51.76,48.48-5.59,29.71-17.61,57.93-29.06,86.25-13,32-12.28,64.83,2.55,98.49,44.06,100,129.47,128.08,228,137.55,91.61,8.8,182.41-8.23,273.76-5.77,46.53,1.25,90.71,14,124.94,39.44-28.59-11.06-57.64-19.41-88.06-24.1-53.75-8.27-105.65,6.56-158.47,8.9-76.45,3.37-153,11.44-228.73-7.2C757.53,1610.17,694.63,1555,667,1464.63c-13-42.49,8-82.34,25-119.89,8.48-18.73,17.84-37.46,26.45-56.34,3.07-6.75,9.71-14,3.17-21.59-6-7-14.32-3.9-22-2.47a44.74,44.74,0,0,1-18.46-.15C799.45,1237.72,909.46,1187.9,1022.65,1147.09Z" style="fill:#816f63"/><path d="M1031.51,1051.78c18.3-13.41,37-26.91,58.93-32.9,17.75-4.84,37.75-12.15,47.7,14.76,4.48,12.13,18.16,8.48,28,8,19-1,42.44,14.17,54.42-14.57,12.66-30.37,12.33-59.54-7.86-86.31-7.18-9.52-17.41-16.81-26.56-24.77-36.5-31.8-63.57-70.75-86.14-113.08-2.24-4.19-2.47-9.46-1.89-15.1,40.1,47.26,84,90,127.17,133.6,34.59,35,38.14,73.35,7.33,118.81-11.4,16.82-12.4,29.1-2.16,46.87,22.84,39.63,52,76.47,60.63,123.09,5.93,32.08,11.58,64.26,2.5,97-1.37-18.68-2.16-37.42-4.21-56-6.23-56.56-38.83-101.37-66.91-148.18-7.87-13.12-15.07-9.1-25-1.41-29.27,22.6-61.38,39.63-99.11,43.18-11,1-22.23,4.17-33-2.73,2.74-8.72,10.14-5.81,15.25-6.08,43.44-2.37,77.41-23.55,107.65-52.7,11.69-11.27,8.06-17.26-6-21.31-20.14-5.8-39.76,1.28-59.61,2-30.84,1.1-31.79.58-19.06-32.16-30.45,7-54.85,20.2-76.17,39.28-6.42,5.75-10.86,11.13-12.76-2.43Z" style="fill:#816f63"/><path d="M1165.74,297.43c-87.67-75.75-216.9-76.74-309.52-10.85-50.35,35.82-68,85.83-79.12,141.08-9.39,46.7-16.37,93.76-12.57,141.76,1,13,1.16,25.64,6.2,38.23,5.37,13.45,5.78,27.86-1.3,47.72-12.86-31.59-14.1-59.57-17.46-86.23-1.94-15.38-7.21-30.32-7.64-45.3-2.83-97.56,13.07-191.41,97.34-252.57,85.14-61.8,180.28-78.06,278.65-26.57C1140.22,255.11,1154.3,272.33,1165.74,297.43Z" style="fill:#816f63"/><path d="M607.71,1244c-27.27-26.6-26.52-62.77-34.24-96.58-9.87-43.19-.4-85.9.15-128.61,1.35-105.37,24.44-205.12,100-284.94,22.92-24.23,52-41.12,83.39-53.43-27.86,23.57-58.09,44.87-80.21,73.43-40.64,52.5-63.86,112.38-70.35,179.37-6,61.39-16.29,122.31-15.47,184.33C591.49,1160.2,590,1202.9,607.71,1244Z" style="fill:#816f63"/><path d="M986.7,1105.83c-17,5.36-33.73,11.49-50.93,15.93-73.32,18.9-147,36.09-221.89,47.93-16.63,2.63-27.5-.23-28.55-19.55-4.79-88.29,11.52-172.69,46.76-253.59,2.31-5.31,4.11-11.58,13.65-15.56-9.9,37.49-22.5,72.39-25,109.25-3,43.3-5.16,86.65-8.21,130-1.46,20.63,6.78,24.86,26.44,21.32,77-13.89,154.36-26.3,231.59-39.21,4.89-.82,9.85-1.21,14.78-1.8Z" style="fill:#816f63"/><path d="M1197,1319c-31.42-1.91-76.65-27.1-97.25-48.89-12.71-13.44-13.64-31.15-4.42-46,10.6-17.12,29.86-24.07,48-16.46,23.57,9.89,40.45,10,59-10.79,13.11-14.72,41-6.23,51.5,11.56,15.92,26.91-8.36,85.65-38.18,101.32-.17-11.28,15.63-32.34,20.76-41,5.47-9.27,8.64-19.13,8.62-29.65,0-13.34-5.36-24.13-19.63-27-13.86-2.76-20.36,6.49-25.31,17.54-13.52,30.2-13.5,30.06-40.7,9.88-12.74-9.46-27.38-21.09-41.21-5.09-13.15,15.22-1.59,29.31,9.34,41.1C1141.23,1290.28,1180.13,1308.24,1197,1319Z" style="fill:#f49b9f"/><path d="M1318,1418c30.93-2.22,55.09,17.07,79.69,29.63,61.72,31.52,110.53,77.4,133.54,146,6.63,19.77,15.69,38.5,12.39,60.13-1.12,7.32,1.07,16.22-11.9,19.43,2.71-53.78-18.9-99.19-52.8-136.92-42-46.76-93.66-82.63-149.46-112-3.83-2-7.52-4.31-11.28-6.47Z" style="fill:#816f63"/><path d="M1031.51,1051.78l-16.86,16.77c-53,53.49-183.28,46.08-222.26-5.09-7.75-10.17-17.85-19-15.86-40,26.32,36,60.17,50.17,98.75,55.93,51.81,7.73,100.59,3.64,142.25-32.21C1025.37,1040.46,1029.58,1041.93,1031.51,1051.78Z" style="fill:#816f63"/><path d="M871,908.93C853.12,892,857.53,871.06,858.62,851c.51-9.38,2.28-19.33,6.18-27.77,12.39-26.84,2.43-44.51-20.94-58.22-28.16-16.53-39.94-43.63-45.92-74.79,17.14,37.5,51.76,57.73,79.75,84.49,11.93,11.41,8.34,27.69,4.12,41.94C873,846.6,862.77,876.17,871,908.93Z" style="fill:#816f63"/><text transform="translate(-1316.38 1245.65)" style="font-size:88.76106262207031px;fill:#816f63;font-family:Champagne&Limousines, "Champagne & Limousines"">Ginecologìa y Obstetricia</text></svg>